<svg width="313" height="235" viewBox="0 0 313 235" fill="none" xmlns="http://www.w3.org/2000/svg">
<ellipse cx="157" cy="114" rx="24" ry="19" fill="white"/>
<path fill-rule="evenodd" clip-rule="evenodd" d="M257.07 133.986C251.435 141.134 241.855 142.263 233.347 142.193C228.238 142.151 223.118 141.766 218.109 140.725C215.409 140.163 212.727 139.42 210.117 138.526C208.394 137.936 205.828 137.641 205.095 135.794C203.16 130.922 204.583 124.811 205.38 119.866C205.785 117.35 206.09 114.82 206.484 112.302C206.736 110.691 206.857 108.909 207.532 107.402C208.322 105.637 209.32 105.99 210.992 106.477C213.295 107.15 215.66 107.429 218.028 107.791C223.807 108.673 228.849 110.453 234.101 112.975C239.294 115.469 244.332 117.93 248.964 121.398C251.311 123.155 253.334 125.063 255.218 127.302C256.673 129.033 258.845 131.734 257.07 133.986ZM232.439 165.735C232.393 166.504 223.562 164.181 222.4 163.92C214.775 162.21 206.998 160.262 199.799 157.172C193.08 154.287 187.16 150.987 181.872 145.863C179.407 143.474 177.19 140.959 175.069 138.28C174.006 136.937 172.553 137.093 171.368 135.957C170.301 134.935 169.484 134.137 169.817 132.608C172.482 133.31 177.402 137.724 180.165 135.495C181.739 134.225 179.556 132.898 178.547 132.162C176.652 130.777 175.032 129.069 173.525 127.277C176.112 127.778 178.52 128.747 180.771 130.096C181.771 130.695 185.199 132.867 185.997 130.796C186.488 129.521 184.164 127.919 183.439 127.214C181.659 125.482 179.738 123.461 178.793 121.133C181.129 120.591 183.331 122.396 184.922 123.867C186.688 125.499 188.853 127.213 190.334 129.094C191.098 130.065 191.264 131.211 191.861 132.257C192.532 133.435 193.606 134.444 194.633 135.315C196.611 136.994 198.924 138.23 201.298 139.253C206.724 141.589 212.54 143.242 218.323 144.402C221.161 144.971 223.928 145.233 226.808 145.33C229.046 145.405 230.037 146.074 230.891 148.136C233.204 153.716 232.784 159.855 232.439 165.735ZM166.023 123.217C164.73 124.428 163.048 125.187 161.695 126.351C160.505 127.375 159.132 128.468 157.804 129.296C156.386 130.18 155.326 129.561 154.049 128.761C152.55 127.822 150.827 127.442 149.283 126.602C143.946 123.697 137.415 116.578 138.412 110.042C138.834 107.271 140.266 104.546 142.867 103.289C145.229 102.147 148.663 101.514 151.19 102.468C152.615 103.006 153.635 104.195 154.549 105.363C155.614 106.725 156.021 106.51 157.106 105.196C159.047 102.847 162.247 100.785 165.411 100.835C166.983 100.86 168.545 101.191 169.962 101.844C170.154 101.933 170.261 102.2 170.453 102.291C170.69 102.403 171.078 102.171 171.243 102.275C171.658 102.537 172.072 103.358 172.311 103.774C173.271 105.444 174.999 108.719 173.257 110.125C173.256 110.125 173.335 112.027 173.311 112.244C173.188 113.378 172.796 114.315 172.291 115.353C170.773 118.47 168.533 120.869 166.023 123.217ZM168.604 149.589C167.378 149.97 166.058 146.129 167.233 145.516C168.354 144.931 169.714 149.245 168.604 149.589ZM149.35 144.996C148.926 146.447 148.747 148.094 147.708 149.275C146.758 148.147 146.664 146.066 147.586 144.907C148.112 144.245 149.815 143.411 149.35 144.996ZM188.578 119.571C188.571 119.608 190.053 120.316 189.33 121.091C188.342 122.15 188.478 120.09 188.578 119.571ZM194.702 107.744C194.685 109.211 191.579 108.857 191.601 107.381C191.628 105.565 194.72 106.189 194.702 107.744ZM190.994 95.4812C191.302 94.1378 196.705 92.2691 196.557 94.6103C196.484 95.7842 190.342 98.3372 190.994 95.4812ZM135.607 141.039C135.001 141.767 134.141 142.054 133.415 142.613C132.653 143.198 132.109 143.958 131.444 144.646C129.618 146.534 127.42 148.085 125.451 149.819C121.829 153.007 118.36 156.434 114.344 159.138C107.169 163.969 98.8479 166.612 90.5875 168.925C89.9032 169.117 87.9319 169.891 87.2549 169.314C86.5246 168.693 86.8959 166.506 86.9296 165.679C87.0665 162.289 87.4617 158.859 87.419 155.474C87.4012 154.084 86.9941 152.107 87.7196 150.835C88.5296 149.414 90.791 148.999 92.19 148.464C96.4419 146.839 100.538 144.098 104.294 141.559C108.911 138.437 113.574 135.264 118.325 132.35C122.98 129.496 128.115 127.584 133.308 125.954C133.548 126.459 131.071 128.086 130.787 128.314C129.429 129.408 127.951 130.542 126.943 131.985C126.229 133.007 125.496 135.32 127.468 135.379C128.423 135.408 129.836 134.484 130.703 134.185C132.134 133.691 133.608 133.344 135.106 133.118C133.819 134.536 129.456 137.081 130.25 139.438C131.02 141.725 135.474 139.056 137.008 139.056C136.756 139.854 136.125 140.416 135.607 141.039ZM82.9819 147.422C80.1293 148.425 77.2054 148.995 74.2611 149.643C71.4549 150.26 68.8609 150.726 65.9866 150.364C62.0179 149.865 57.6262 148.221 57.123 143.712C56.5264 138.369 60.2998 133.459 63.54 129.626C67.4833 124.962 71.9113 120.792 76.7102 117.017C81.5037 113.245 86.6775 109.92 92.098 107.113C96.2217 104.977 100.879 103.681 105.239 102.078C106.069 101.773 108.363 100.702 109.139 101.589C109.766 102.307 108.913 103.504 108.627 104.17C108.069 105.47 107.993 106.778 107.849 108.174C107.206 114.406 106.432 120.636 106.076 126.895C105.977 128.639 105.802 130.463 105.904 132.209C105.96 133.176 106.463 134.407 106.128 135.351C105.484 137.165 102.535 138.366 100.972 139.177C98.1734 140.628 95.2103 141.71 92.3834 143.098C89.2787 144.622 86.2558 146.27 82.9819 147.422ZM122.545 106.929C123.328 106.821 124.501 106.608 125.199 107.115C126.109 107.777 125.87 108.697 125.03 109.177C124.366 109.556 122.812 109.66 122.156 109.316C121.038 108.73 121.227 107.11 122.545 106.929ZM126.881 121.359C126.249 122.413 123.936 123.104 124.137 121.138C124.31 119.454 128.047 119.419 126.881 121.359ZM126.023 91.6704C127.04 92.0645 128.886 92.4018 129.188 93.7101C129.468 94.9281 128.314 94.8475 127.482 94.5123C126.797 94.2372 123.745 91.6494 126.023 91.6704ZM285.394 138.128C284.8 135.816 285.253 133.257 284.925 130.889C284.607 128.593 284.035 126.484 283.213 124.32C281.395 119.531 279.312 115.22 276.364 111.017C270.813 103.102 264.372 96.1301 256.595 90.3487C248.917 84.6413 240.415 80.003 231.409 76.7522C221.859 73.3048 212.245 72.1049 202.174 71.444C199.166 71.247 196.161 71.0131 193.171 70.6331C190.985 70.3555 188.245 70.0135 186.084 70.683C184.726 71.1038 183.968 72.2878 185.447 73.0647C186.496 73.6157 187.868 73.6815 189.027 73.8279C187.628 78.2724 185.351 82.7322 181.744 85.7924C178.222 88.7804 173.509 89.8046 169.065 90.5623C166.654 90.973 163.956 91.2908 161.508 91.1137C159.961 91.002 158.753 90.2854 158.129 91.8794C157.696 92.9867 157.491 94.2018 156.919 92.5297C156.244 90.5529 155.912 90.5656 153.811 90.0042C149.513 88.856 144.586 87.8083 140.836 85.3253C136.946 82.7491 135.593 78.5815 133.422 74.701C132.884 73.7418 131.264 71.8005 132.092 70.7014C132.849 69.6964 135.311 69.7966 136.438 69.6917C137.628 69.5811 138.825 69.5764 140.018 69.5301C140.71 69.5034 142.101 69.7868 141.822 68.7539C141.403 67.1972 136.906 67.3968 135.789 67.3715C133.712 67.3248 131.607 67.3729 129.541 67.6014C119.296 68.7344 108.959 70.8294 99.0446 73.6233C79.8098 79.0432 61.1808 89.0306 47.1434 103.419C33.6689 117.23 29.4 140.213 37.6836 157.848C41.9884 167.013 51.3308 170.778 60.3871 173.819C65.1639 175.422 70.2222 176.677 75.3 176.374C77.7368 176.229 80.0489 175.573 82.4256 175.078C83.4619 174.863 84.6414 174.519 85.706 174.606C86.5119 174.671 87.286 175.411 88.042 175.018C88.5785 174.739 88.8118 173.938 89.4674 173.597C90.2546 173.188 91.2091 173.04 92.0592 172.833C94.4225 172.259 96.7107 171.328 99.0207 170.565C101.409 169.776 103.663 168.759 105.955 167.731C107.113 167.212 109.791 165.102 110.545 166.645C110.889 167.349 110.742 168.707 110.826 169.446C110.973 170.737 111.145 172.026 111.333 173.312C111.749 176.144 112.246 178.964 112.755 181.781C113.674 186.863 114.859 191.728 116.839 196.508C118.421 200.325 119.809 204.651 122.746 207.688C124.028 209.013 125.777 209.61 127.616 209.193C129.707 208.719 130.749 206.819 132.018 205.283C134.812 201.903 139.424 199.313 143.683 198.381C148.898 197.239 153.978 198.909 158.956 200.328C164.221 201.83 169.581 203.26 174.75 205.065C179.566 206.747 184.766 209.231 189.989 209.015C194.544 208.826 198.798 205.119 202.083 202.294C205.382 199.456 209.507 195.301 214.251 195.635C216.607 195.801 218.753 196.937 221.048 197.399C223.567 197.906 226.247 197.978 228.808 198.167C231.988 198.402 239.102 197.573 240.278 193.748C240.452 193.18 240.454 192.012 239.704 191.785C239.015 191.576 238.663 192.382 238.01 192.345C236.681 192.27 235.643 189.954 234.913 189.057C231.967 185.436 227.926 182.735 224.621 179.464C220.888 175.771 217.702 171.297 214.889 166.884C216.161 166.553 217.533 167.102 218.763 167.363C220.259 167.68 221.715 168.062 223.189 168.468C224.813 168.915 226.46 169.223 228.108 169.563C229.338 169.817 230.97 169.894 232.08 170.511C233.049 171.049 233.59 171.628 234.793 171.784C236.016 171.943 237.272 171.809 238.501 171.801C241.825 171.778 245.142 171.716 248.45 171.365C260.14 170.123 272.531 165.179 279.561 155.366C281.472 152.697 283.013 149.74 283.986 146.602C284.746 144.152 286.055 140.7 285.394 138.128Z" fill="white"/>
<path fill-rule="evenodd" clip-rule="evenodd" d="M175.753 25.067C178.825 25.1105 181.705 26.0214 184.567 27.057C187.085 27.9676 189.768 28.8101 191.804 30.6277C195.465 33.8972 196.418 39.3107 197.018 43.9423C197.765 49.7219 195.278 54.5709 193.185 59.7996C191.227 64.6899 187.634 68.6515 183.363 71.6703C181.126 73.2516 178.653 74.206 176.066 75.0431C173.438 75.8932 170.892 77.0317 168.081 77.0273C163.811 77.0212 158.344 74.9931 156.525 70.7862C155.697 68.8708 156.503 68.5269 158.16 69.5679C160.565 71.0782 162.882 72.7081 165.691 73.3781C171.139 74.6778 177.665 72.6642 182.442 70.0075C187.218 67.3514 190.424 63.3615 192.566 58.3933C194.728 53.3813 195.568 48.4424 194.734 43.039C194.028 38.4599 192.622 34.2773 188.496 31.7915C179.588 26.4262 167.586 26.8585 159.664 33.8312C158.578 34.7871 157.504 35.7173 156.385 36.63C155.673 37.2102 154.835 37.9063 154.938 38.9096C155.027 39.7687 156.859 43.0814 154.653 42.0639C152.864 41.2388 151.893 39.626 149.726 39.4263C147.421 39.2136 144.671 40.9848 143.981 43.214C143.323 45.341 144.496 48.2511 146.334 49.4711C147.472 50.2266 148.724 50.1099 150.016 50.0795C150.657 50.0643 152.442 49.8559 152.867 50.5339C153.617 51.7329 150.968 52.9932 150.113 53.2584C148.033 53.9038 145.574 53.1443 144.379 51.2872C143.163 49.3994 142.331 47.2144 142.163 44.9653C142.003 42.8103 142.492 40.6286 143.763 38.8592C145.116 36.9775 147.872 34.8679 150.343 35.5216C151.415 35.8053 152.277 36.9134 153.33 37.1239C153.994 37.2566 153.714 37.3515 154.265 36.8591C154.614 36.5467 154.944 35.9702 155.267 35.5999C157.121 33.4707 158.955 31.1984 161.225 29.4942C165.295 26.4385 170.704 24.9953 175.753 25.067ZM164.499 67.2805C164.98 66.1521 165.864 68.165 166.126 68.5016C166.643 69.1674 167.861 69.6854 167.808 70.6674C167.721 72.2886 165.511 71.9879 164.775 71.1422C163.936 70.1793 164.024 68.3948 164.499 67.2805ZM180.198 59.6045C181.39 61.4623 179.937 63.4676 178.995 65.1119C178.094 66.684 177.257 68.4612 176.208 69.9392C174.466 72.3932 170.677 69.7385 170.564 67.2165C170.478 65.2858 171.846 66.1263 172.724 66.8473C173.627 67.59 174.055 67.7749 175.003 66.9638C176.908 65.3312 177.764 62.6015 179.081 60.5347C179.342 60.1249 179.815 59.8784 180.198 59.6045ZM183.596 60.2019C183.904 61.1003 183.259 63.4808 185.052 63.2428C186.042 63.1114 186.254 61.6899 186.775 61.0695C188.526 58.984 187.989 62.9285 187.531 63.9158C186.523 66.0917 183.699 67.5909 182.299 64.8305C181.779 63.8036 181.781 62.5077 182.045 61.4038C182.189 60.8026 183.029 58.5427 183.596 60.2019ZM167.61 55.9468C167.451 56.9951 166.466 59.0836 167.669 59.8335C168.727 60.4936 170.571 59.0601 171.386 58.4616C172.233 57.8396 174.152 56.0553 174.228 58.2757C174.266 59.4076 173.133 60.7656 172.325 61.4176C170.6 62.8082 167.016 64.0555 165.745 61.4381C165.052 60.0123 165.431 57.9825 165.889 56.5457C166.26 55.3813 167.993 53.4149 167.61 55.9468ZM190.233 50.2077C190.935 51.0229 192.599 52.8491 191.694 54.01C190.636 55.3668 188.918 52.8773 188.24 52.1844C187.63 51.5602 186.346 49.7828 186.893 48.84C187.8 47.2799 189.617 49.4921 190.233 50.2077ZM179.2 46.6978C181.495 48.1926 178.478 49.2689 177.171 49.4027C175.589 49.564 173.567 49.671 172.114 48.8949C170.055 47.7947 170.741 46.1329 172.737 45.7351C174.784 45.3275 177.42 45.5376 179.2 46.6978ZM149.372 41.9394C151.059 42.2677 152.986 42.695 153.561 44.5345C154.154 46.4356 153.302 47.0665 151.578 46.6386C149.984 46.2425 147.602 45.8438 146.701 44.2863C145.624 42.4254 147.807 41.6354 149.372 41.9394Z" fill="white"/>
<path fill-rule="evenodd" clip-rule="evenodd" d="M56.5314 82.7892C55.9652 84.6178 53.0993 85.8306 51.6702 86.9421C46.6712 90.8311 41.7864 94.8802 37.2671 99.3186C34.9214 101.622 33.1459 104.409 31.1118 106.971C30.6155 107.596 29.7363 108.997 28.7628 108.865C27.6949 108.722 27.479 106.882 27.513 106.079C27.6297 103.34 30.1315 100.694 31.9157 98.8078C33.9226 96.6868 36.0683 94.6199 38.2597 92.6885C40.6724 90.5625 43.2905 88.735 45.9586 86.9457C48.5786 85.1889 51.0905 83.1591 53.8152 81.5677C55.0987 80.8182 57.2299 80.533 56.5314 82.7892ZM231.272 65.4231C233.359 65.4889 235.395 66.1733 237.363 66.8087C241.691 68.2066 245.814 70.1457 249.88 72.1723C257.007 75.7249 263.866 80.0232 270.153 84.9104C271.467 85.9317 272.814 86.7593 274.244 87.5946C275.158 88.1296 276.462 88.7824 276.815 89.8728C277.71 92.6445 273.192 89.8626 272.551 89.4646L271.649 88.9053C258.272 80.6147 244.91 72.5595 229.779 67.8049C228.973 67.5516 228.722 66.8327 229.145 66.1199C229.604 65.3475 230.497 65.3988 231.272 65.4231ZM55.9227 71.2242C55.8259 72.0682 54.87 72.2601 54.2253 72.531C51.8197 73.5415 49.3541 74.4033 46.955 75.4305C42.5022 77.3369 38.4131 80.1036 33.7654 81.5504C32.7033 81.8817 32.5466 80.8097 32.831 80.0803C33.1477 79.2662 34.0989 78.6946 34.7868 78.2237C36.7714 76.8642 39.0221 75.8868 41.226 74.9425C43.4109 74.0055 45.6605 73.2968 47.9007 72.5114C49.9827 71.7813 52.3993 70.4224 54.6351 70.3221L54.7328 70.3174C55.4444 70.2814 56.0353 70.2333 55.9227 71.2242ZM235.07 58.4031C232.943 57.8047 234.953 56.458 236.217 56.5526C237.627 56.6583 238.99 57.3241 240.328 57.7258C244.417 58.9536 248.208 60.2965 252.028 62.2023C252.598 62.4869 255.108 63.8357 253.448 64.4331C252.297 64.8469 249.61 63.0713 248.622 62.6454C244.28 60.7735 239.615 59.6813 235.07 58.4031Z" fill="white"/>
<path fill-rule="evenodd" clip-rule="evenodd" d="M150.267 62.7624C150.533 61.9822 153.822 53.4536 152.534 53.1964C151.171 52.9237 149.348 57.8719 148.953 58.7659C147.492 62.0678 146.627 65.6106 145.949 69.1522C145.477 71.6182 145.062 74.1446 145.227 76.6658C145.354 78.6034 146.155 78.8967 147.474 80.084C147.474 74.1987 148.368 68.3327 150.267 62.7624Z" fill="white"/>
<mask id="path-6-outside-1" maskUnits="userSpaceOnUse" x="127" y="94" width="60" height="40" fill="black">
<rect fill="white" x="127" y="94" width="60" height="40"/>
<path d="M186.356 115.746C186.248 114.046 186.248 111.46 184.477 110.351C183.722 109.889 182.75 109.778 181.93 110.185C181.347 110.48 181.088 110.924 180.98 111.441C180.721 111.478 180.462 111.515 180.181 111.515C179.836 111.515 179.49 111.515 179.145 111.515C178.994 110.295 178.475 108.947 177.914 107.875C177.612 107.283 177.223 106.729 176.748 106.23C176.532 106.008 176.316 105.768 176.079 105.565C175.863 105.38 175.237 105.048 175.129 104.826C175.021 104.586 175.539 103.255 175.604 102.941C175.777 102.184 175.971 101.444 176.23 100.705C176.791 99.1716 177.331 97.4531 178.432 96.1412C178.864 95.6238 178.259 95.0879 177.677 95.0325C175.258 94.7553 172.732 96.3075 170.94 97.5086C169.99 98.1368 169.148 98.839 168.479 99.689C168.047 100.225 167.551 100.89 167.227 101.555C164.291 100.465 161.031 99.7259 157.792 100.096C154.014 100.539 150.711 101.611 147.666 103.625C144.644 105.62 141.751 108.189 140.088 111.182C139.268 112.642 138.965 114.12 138.793 115.728C138.728 116.393 138.663 117.058 138.663 117.742C137.756 117.65 137.584 116.116 137.411 115.58C137.238 115.026 136.958 114.416 136.483 114.01C135.295 112.993 133.374 113.825 132.575 114.841C132.359 115.118 131.711 117.483 131.366 117.391C131.085 117.317 130.848 116.227 130.74 116.005C130.437 115.395 129.833 114.693 129.682 114.028C129.466 113.104 127.803 113.492 128.019 114.416C128.192 115.118 128.775 115.82 129.099 116.486C129.379 117.021 129.487 117.65 129.876 118.149C130.74 119.276 132.488 118.943 133.179 117.853C133.525 117.317 133.568 116.726 133.762 116.153C133.892 115.802 134.043 115.562 134.388 115.321C135.079 114.86 135.382 115.063 135.619 115.673C136.202 117.021 136.461 119.257 138.706 119.22C138.75 119.664 138.836 120.089 138.965 120.532C139.376 121.992 140.196 123.711 141.254 124.912C141.902 125.651 143.068 126.593 144.233 127.037C144.104 127.258 143.996 127.499 143.888 127.739C143.607 128.349 143.176 128.903 142.916 129.531C142.334 130.88 143.068 131.416 144.255 132.21C145.054 132.746 146.587 133.726 147.666 133.134C148.184 132.839 148.573 132.229 148.875 131.785C149.264 131.213 149.717 130.658 150.149 130.104C150.624 130.252 151.099 130.492 151.574 130.584C152.416 130.732 153.258 130.621 154.1 130.658C156.022 130.732 157.9 130.714 159.843 130.658C161.614 130.621 163.341 130.64 165.09 130.344C165.91 130.196 166.752 130.03 167.551 129.79C167.896 129.679 168.242 129.513 168.587 129.365C168.717 129.587 168.846 129.808 168.997 130.03C169.343 130.547 169.559 131.157 169.99 131.619C170.811 132.488 172.02 132.58 173.143 132.063C173.985 131.675 175.323 131.176 175.302 130.196C175.28 129.66 174.827 129.217 174.589 128.755C174.416 128.422 174.201 128.053 174.049 127.683C174.179 127.683 174.308 127.702 174.395 127.683C174.762 127.628 174.935 127.48 175.237 127.332C175.453 127.221 175.69 127.184 175.928 127.092C176.057 127.037 176.165 126.981 176.295 126.926C176.403 126.907 176.489 126.889 176.597 126.852C179.037 125.762 180.354 123.304 180.591 121.013C180.958 120.994 181.325 120.957 181.692 120.939C182.297 122.269 184.046 123.286 185.471 121.974C186.205 121.29 186.313 120.144 186.377 119.257C186.464 118.075 186.421 116.892 186.356 115.746ZM184.65 119.054C184.629 119.461 184.65 120.532 184.283 120.828C184.002 121.068 183.571 120.846 183.42 120.643C183.268 120.458 183.225 120.144 183.182 119.922C183.096 119.516 182.75 119.368 182.383 119.387C182.34 119.387 182.275 119.368 182.21 119.368C181.433 119.368 180.678 119.479 179.9 119.497C179.469 119.497 179.188 119.738 179.101 120.015C178.972 120.126 178.886 120.292 178.886 120.477C178.821 122.269 177.892 124.32 176.079 125.318C175.993 125.337 175.928 125.355 175.863 125.374C175.625 125.466 175.41 125.614 175.151 125.706C174.87 125.817 174.589 125.872 174.33 126.002C174.049 126.15 174.093 126.131 173.747 126.131C173.402 126.131 173.099 126.187 172.819 126.353C172.776 126.39 172.711 126.427 172.668 126.464C172.301 126.593 172.02 126.907 172.128 127.314C172.279 127.942 172.646 128.552 172.927 129.143C172.991 129.291 173.51 129.919 173.466 130.048C173.423 130.178 172.819 130.363 172.689 130.437C172.409 130.584 172.02 130.917 171.675 130.843C171.286 130.769 171.113 130.289 170.962 130.012C170.573 129.254 169.969 128.607 169.753 127.794C169.537 126.981 168.242 127.184 168.069 127.868C167.724 128.016 167.4 128.182 167.054 128.293C166.385 128.515 165.651 128.663 164.96 128.792C163.168 129.125 161.398 129.069 159.606 129.125C157.814 129.18 156.065 129.254 154.273 129.125C153.409 129.069 152.546 129.198 151.682 129.014C150.97 128.866 150.365 128.515 149.631 128.459C149.134 128.422 148.854 128.718 148.811 129.051C148.444 129.568 147.99 130.048 147.623 130.566C147.364 130.935 147.127 131.379 146.781 131.712C145.896 131.545 144.428 130.714 144.449 130.104C144.471 129.679 144.968 129.143 145.183 128.755C145.486 128.219 145.615 127.572 146.047 127.129C146.457 126.685 146.177 126.113 145.723 125.909C145.594 125.817 145.443 125.762 145.227 125.743C144.795 125.706 143.996 125.078 143.672 124.875C143.068 124.468 142.571 124.025 142.182 123.452C141.513 122.436 140.887 121.216 140.585 120.07C140.196 118.703 140.282 117.225 140.434 115.82C140.585 114.324 140.865 112.919 141.664 111.57C143.132 109.076 145.507 106.877 148.033 105.14C149.35 104.235 150.754 103.366 152.287 102.775C153.755 102.202 155.288 101.962 156.864 101.703C160.318 101.112 163.708 101.777 166.838 102.997C167.054 103.089 167.27 103.089 167.464 103.034C167.896 103.144 168.393 103.034 168.544 102.553C168.738 101.925 169.3 101.186 169.688 100.631C170.271 99.8368 171.048 99.1901 171.912 98.6173C173.035 97.8781 174.524 96.9173 176.036 96.5662C175.496 97.5455 175.151 98.6173 174.74 99.6336C174.114 101.204 173.661 102.886 173.402 104.53C173.186 105.861 174.805 106.433 175.604 107.431C176.144 108.097 176.468 108.836 176.748 109.612C177.007 110.369 177.353 111.293 177.374 112.088C177.374 112.346 177.504 112.55 177.698 112.661C177.828 112.827 178.065 112.956 178.367 112.956C178.929 112.956 179.512 112.956 180.073 112.956C180.526 112.956 180.937 112.864 181.39 112.827C181.606 112.808 181.779 112.753 181.908 112.642C182.232 112.568 182.534 112.346 182.534 111.958C182.556 111.441 182.858 111.182 183.463 111.57C183.894 111.866 184.067 112.494 184.175 112.901C184.434 113.899 184.521 115.007 184.564 116.024C184.672 117.058 184.715 118.075 184.65 119.054Z"/>
</mask>
<path d="M186.356 115.746C186.248 114.046 186.248 111.46 184.477 110.351C183.722 109.889 182.75 109.778 181.93 110.185C181.347 110.48 181.088 110.924 180.98 111.441C180.721 111.478 180.462 111.515 180.181 111.515C179.836 111.515 179.49 111.515 179.145 111.515C178.994 110.295 178.475 108.947 177.914 107.875C177.612 107.283 177.223 106.729 176.748 106.23C176.532 106.008 176.316 105.768 176.079 105.565C175.863 105.38 175.237 105.048 175.129 104.826C175.021 104.586 175.539 103.255 175.604 102.941C175.777 102.184 175.971 101.444 176.23 100.705C176.791 99.1716 177.331 97.4531 178.432 96.1412C178.864 95.6238 178.259 95.0879 177.677 95.0325C175.258 94.7553 172.732 96.3075 170.94 97.5086C169.99 98.1368 169.148 98.839 168.479 99.689C168.047 100.225 167.551 100.89 167.227 101.555C164.291 100.465 161.031 99.7259 157.792 100.096C154.014 100.539 150.711 101.611 147.666 103.625C144.644 105.62 141.751 108.189 140.088 111.182C139.268 112.642 138.965 114.12 138.793 115.728C138.728 116.393 138.663 117.058 138.663 117.742C137.756 117.65 137.584 116.116 137.411 115.58C137.238 115.026 136.958 114.416 136.483 114.01C135.295 112.993 133.374 113.825 132.575 114.841C132.359 115.118 131.711 117.483 131.366 117.391C131.085 117.317 130.848 116.227 130.74 116.005C130.437 115.395 129.833 114.693 129.682 114.028C129.466 113.104 127.803 113.492 128.019 114.416C128.192 115.118 128.775 115.82 129.099 116.486C129.379 117.021 129.487 117.65 129.876 118.149C130.74 119.276 132.488 118.943 133.179 117.853C133.525 117.317 133.568 116.726 133.762 116.153C133.892 115.802 134.043 115.562 134.388 115.321C135.079 114.86 135.382 115.063 135.619 115.673C136.202 117.021 136.461 119.257 138.706 119.22C138.75 119.664 138.836 120.089 138.965 120.532C139.376 121.992 140.196 123.711 141.254 124.912C141.902 125.651 143.068 126.593 144.233 127.037C144.104 127.258 143.996 127.499 143.888 127.739C143.607 128.349 143.176 128.903 142.916 129.531C142.334 130.88 143.068 131.416 144.255 132.21C145.054 132.746 146.587 133.726 147.666 133.134C148.184 132.839 148.573 132.229 148.875 131.785C149.264 131.213 149.717 130.658 150.149 130.104C150.624 130.252 151.099 130.492 151.574 130.584C152.416 130.732 153.258 130.621 154.1 130.658C156.022 130.732 157.9 130.714 159.843 130.658C161.614 130.621 163.341 130.64 165.09 130.344C165.91 130.196 166.752 130.03 167.551 129.79C167.896 129.679 168.242 129.513 168.587 129.365C168.717 129.587 168.846 129.808 168.997 130.03C169.343 130.547 169.559 131.157 169.99 131.619C170.811 132.488 172.02 132.58 173.143 132.063C173.985 131.675 175.323 131.176 175.302 130.196C175.28 129.66 174.827 129.217 174.589 128.755C174.416 128.422 174.201 128.053 174.049 127.683C174.179 127.683 174.308 127.702 174.395 127.683C174.762 127.628 174.935 127.48 175.237 127.332C175.453 127.221 175.69 127.184 175.928 127.092C176.057 127.037 176.165 126.981 176.295 126.926C176.403 126.907 176.489 126.889 176.597 126.852C179.037 125.762 180.354 123.304 180.591 121.013C180.958 120.994 181.325 120.957 181.692 120.939C182.297 122.269 184.046 123.286 185.471 121.974C186.205 121.29 186.313 120.144 186.377 119.257C186.464 118.075 186.421 116.892 186.356 115.746ZM184.65 119.054C184.629 119.461 184.65 120.532 184.283 120.828C184.002 121.068 183.571 120.846 183.42 120.643C183.268 120.458 183.225 120.144 183.182 119.922C183.096 119.516 182.75 119.368 182.383 119.387C182.34 119.387 182.275 119.368 182.21 119.368C181.433 119.368 180.678 119.479 179.9 119.497C179.469 119.497 179.188 119.738 179.101 120.015C178.972 120.126 178.886 120.292 178.886 120.477C178.821 122.269 177.892 124.32 176.079 125.318C175.993 125.337 175.928 125.355 175.863 125.374C175.625 125.466 175.41 125.614 175.151 125.706C174.87 125.817 174.589 125.872 174.33 126.002C174.049 126.15 174.093 126.131 173.747 126.131C173.402 126.131 173.099 126.187 172.819 126.353C172.776 126.39 172.711 126.427 172.668 126.464C172.301 126.593 172.02 126.907 172.128 127.314C172.279 127.942 172.646 128.552 172.927 129.143C172.991 129.291 173.51 129.919 173.466 130.048C173.423 130.178 172.819 130.363 172.689 130.437C172.409 130.584 172.02 130.917 171.675 130.843C171.286 130.769 171.113 130.289 170.962 130.012C170.573 129.254 169.969 128.607 169.753 127.794C169.537 126.981 168.242 127.184 168.069 127.868C167.724 128.016 167.4 128.182 167.054 128.293C166.385 128.515 165.651 128.663 164.96 128.792C163.168 129.125 161.398 129.069 159.606 129.125C157.814 129.18 156.065 129.254 154.273 129.125C153.409 129.069 152.546 129.198 151.682 129.014C150.97 128.866 150.365 128.515 149.631 128.459C149.134 128.422 148.854 128.718 148.811 129.051C148.444 129.568 147.99 130.048 147.623 130.566C147.364 130.935 147.127 131.379 146.781 131.712C145.896 131.545 144.428 130.714 144.449 130.104C144.471 129.679 144.968 129.143 145.183 128.755C145.486 128.219 145.615 127.572 146.047 127.129C146.457 126.685 146.177 126.113 145.723 125.909C145.594 125.817 145.443 125.762 145.227 125.743C144.795 125.706 143.996 125.078 143.672 124.875C143.068 124.468 142.571 124.025 142.182 123.452C141.513 122.436 140.887 121.216 140.585 120.07C140.196 118.703 140.282 117.225 140.434 115.82C140.585 114.324 140.865 112.919 141.664 111.57C143.132 109.076 145.507 106.877 148.033 105.14C149.35 104.235 150.754 103.366 152.287 102.775C153.755 102.202 155.288 101.962 156.864 101.703C160.318 101.112 163.708 101.777 166.838 102.997C167.054 103.089 167.27 103.089 167.464 103.034C167.896 103.144 168.393 103.034 168.544 102.553C168.738 101.925 169.3 101.186 169.688 100.631C170.271 99.8368 171.048 99.1901 171.912 98.6173C173.035 97.8781 174.524 96.9173 176.036 96.5662C175.496 97.5455 175.151 98.6173 174.74 99.6336C174.114 101.204 173.661 102.886 173.402 104.53C173.186 105.861 174.805 106.433 175.604 107.431C176.144 108.097 176.468 108.836 176.748 109.612C177.007 110.369 177.353 111.293 177.374 112.088C177.374 112.346 177.504 112.55 177.698 112.661C177.828 112.827 178.065 112.956 178.367 112.956C178.929 112.956 179.512 112.956 180.073 112.956C180.526 112.956 180.937 112.864 181.39 112.827C181.606 112.808 181.779 112.753 181.908 112.642C182.232 112.568 182.534 112.346 182.534 111.958C182.556 111.441 182.858 111.182 183.463 111.57C183.894 111.866 184.067 112.494 184.175 112.901C184.434 113.899 184.521 115.007 184.564 116.024C184.672 117.058 184.715 118.075 184.65 119.054Z" fill="#20B5B2"/>
<path d="M186.356 115.746C186.248 114.046 186.248 111.46 184.477 110.351C183.722 109.889 182.75 109.778 181.93 110.185C181.347 110.48 181.088 110.924 180.98 111.441C180.721 111.478 180.462 111.515 180.181 111.515C179.836 111.515 179.49 111.515 179.145 111.515C178.994 110.295 178.475 108.947 177.914 107.875C177.612 107.283 177.223 106.729 176.748 106.23C176.532 106.008 176.316 105.768 176.079 105.565C175.863 105.38 175.237 105.048 175.129 104.826C175.021 104.586 175.539 103.255 175.604 102.941C175.777 102.184 175.971 101.444 176.23 100.705C176.791 99.1716 177.331 97.4531 178.432 96.1412C178.864 95.6238 178.259 95.0879 177.677 95.0325C175.258 94.7553 172.732 96.3075 170.94 97.5086C169.99 98.1368 169.148 98.839 168.479 99.689C168.047 100.225 167.551 100.89 167.227 101.555C164.291 100.465 161.031 99.7259 157.792 100.096C154.014 100.539 150.711 101.611 147.666 103.625C144.644 105.62 141.751 108.189 140.088 111.182C139.268 112.642 138.965 114.12 138.793 115.728C138.728 116.393 138.663 117.058 138.663 117.742C137.756 117.65 137.584 116.116 137.411 115.58C137.238 115.026 136.958 114.416 136.483 114.01C135.295 112.993 133.374 113.825 132.575 114.841C132.359 115.118 131.711 117.483 131.366 117.391C131.085 117.317 130.848 116.227 130.74 116.005C130.437 115.395 129.833 114.693 129.682 114.028C129.466 113.104 127.803 113.492 128.019 114.416C128.192 115.118 128.775 115.82 129.099 116.486C129.379 117.021 129.487 117.65 129.876 118.149C130.74 119.276 132.488 118.943 133.179 117.853C133.525 117.317 133.568 116.726 133.762 116.153C133.892 115.802 134.043 115.562 134.388 115.321C135.079 114.86 135.382 115.063 135.619 115.673C136.202 117.021 136.461 119.257 138.706 119.22C138.75 119.664 138.836 120.089 138.965 120.532C139.376 121.992 140.196 123.711 141.254 124.912C141.902 125.651 143.068 126.593 144.233 127.037C144.104 127.258 143.996 127.499 143.888 127.739C143.607 128.349 143.176 128.903 142.916 129.531C142.334 130.88 143.068 131.416 144.255 132.21C145.054 132.746 146.587 133.726 147.666 133.134C148.184 132.839 148.573 132.229 148.875 131.785C149.264 131.213 149.717 130.658 150.149 130.104C150.624 130.252 151.099 130.492 151.574 130.584C152.416 130.732 153.258 130.621 154.1 130.658C156.022 130.732 157.9 130.714 159.843 130.658C161.614 130.621 163.341 130.64 165.09 130.344C165.91 130.196 166.752 130.03 167.551 129.79C167.896 129.679 168.242 129.513 168.587 129.365C168.717 129.587 168.846 129.808 168.997 130.03C169.343 130.547 169.559 131.157 169.99 131.619C170.811 132.488 172.02 132.58 173.143 132.063C173.985 131.675 175.323 131.176 175.302 130.196C175.28 129.66 174.827 129.217 174.589 128.755C174.416 128.422 174.201 128.053 174.049 127.683C174.179 127.683 174.308 127.702 174.395 127.683C174.762 127.628 174.935 127.48 175.237 127.332C175.453 127.221 175.69 127.184 175.928 127.092C176.057 127.037 176.165 126.981 176.295 126.926C176.403 126.907 176.489 126.889 176.597 126.852C179.037 125.762 180.354 123.304 180.591 121.013C180.958 120.994 181.325 120.957 181.692 120.939C182.297 122.269 184.046 123.286 185.471 121.974C186.205 121.29 186.313 120.144 186.377 119.257C186.464 118.075 186.421 116.892 186.356 115.746ZM184.65 119.054C184.629 119.461 184.65 120.532 184.283 120.828C184.002 121.068 183.571 120.846 183.42 120.643C183.268 120.458 183.225 120.144 183.182 119.922C183.096 119.516 182.75 119.368 182.383 119.387C182.34 119.387 182.275 119.368 182.21 119.368C181.433 119.368 180.678 119.479 179.9 119.497C179.469 119.497 179.188 119.738 179.101 120.015C178.972 120.126 178.886 120.292 178.886 120.477C178.821 122.269 177.892 124.32 176.079 125.318C175.993 125.337 175.928 125.355 175.863 125.374C175.625 125.466 175.41 125.614 175.151 125.706C174.87 125.817 174.589 125.872 174.33 126.002C174.049 126.15 174.093 126.131 173.747 126.131C173.402 126.131 173.099 126.187 172.819 126.353C172.776 126.39 172.711 126.427 172.668 126.464C172.301 126.593 172.02 126.907 172.128 127.314C172.279 127.942 172.646 128.552 172.927 129.143C172.991 129.291 173.51 129.919 173.466 130.048C173.423 130.178 172.819 130.363 172.689 130.437C172.409 130.584 172.02 130.917 171.675 130.843C171.286 130.769 171.113 130.289 170.962 130.012C170.573 129.254 169.969 128.607 169.753 127.794C169.537 126.981 168.242 127.184 168.069 127.868C167.724 128.016 167.4 128.182 167.054 128.293C166.385 128.515 165.651 128.663 164.96 128.792C163.168 129.125 161.398 129.069 159.606 129.125C157.814 129.18 156.065 129.254 154.273 129.125C153.409 129.069 152.546 129.198 151.682 129.014C150.97 128.866 150.365 128.515 149.631 128.459C149.134 128.422 148.854 128.718 148.811 129.051C148.444 129.568 147.99 130.048 147.623 130.566C147.364 130.935 147.127 131.379 146.781 131.712C145.896 131.545 144.428 130.714 144.449 130.104C144.471 129.679 144.968 129.143 145.183 128.755C145.486 128.219 145.615 127.572 146.047 127.129C146.457 126.685 146.177 126.113 145.723 125.909C145.594 125.817 145.443 125.762 145.227 125.743C144.795 125.706 143.996 125.078 143.672 124.875C143.068 124.468 142.571 124.025 142.182 123.452C141.513 122.436 140.887 121.216 140.585 120.07C140.196 118.703 140.282 117.225 140.434 115.82C140.585 114.324 140.865 112.919 141.664 111.57C143.132 109.076 145.507 106.877 148.033 105.14C149.35 104.235 150.754 103.366 152.287 102.775C153.755 102.202 155.288 101.962 156.864 101.703C160.318 101.112 163.708 101.777 166.838 102.997C167.054 103.089 167.27 103.089 167.464 103.034C167.896 103.144 168.393 103.034 168.544 102.553C168.738 101.925 169.3 101.186 169.688 100.631C170.271 99.8368 171.048 99.1901 171.912 98.6173C173.035 97.8781 174.524 96.9173 176.036 96.5662C175.496 97.5455 175.151 98.6173 174.74 99.6336C174.114 101.204 173.661 102.886 173.402 104.53C173.186 105.861 174.805 106.433 175.604 107.431C176.144 108.097 176.468 108.836 176.748 109.612C177.007 110.369 177.353 111.293 177.374 112.088C177.374 112.346 177.504 112.55 177.698 112.661C177.828 112.827 178.065 112.956 178.367 112.956C178.929 112.956 179.512 112.956 180.073 112.956C180.526 112.956 180.937 112.864 181.39 112.827C181.606 112.808 181.779 112.753 181.908 112.642C182.232 112.568 182.534 112.346 182.534 111.958C182.556 111.441 182.858 111.182 183.463 111.57C183.894 111.866 184.067 112.494 184.175 112.901C184.434 113.899 184.521 115.007 184.564 116.024C184.672 117.058 184.715 118.075 184.65 119.054Z" stroke="#20B5B2" mask="url(#path-6-outside-1)"/>
</svg>
