<svg viewBox="0 0 350 76" fill="none" xmlns="http://www.w3.org/2000/svg">
<path d="M25.4254 55.4922C24.9985 54.4675 24.4221 53.1653 23.6962 51.5855C23.0131 50.0058 22.2659 48.298 21.4547 46.462C20.6435 44.6261 19.7682 42.7475 18.8289 40.8262C17.9323 38.8622 17.0784 37.0262 16.2672 35.3184C15.4559 33.5679 14.6874 32.0095 13.9616 30.6432C13.2784 29.2769 12.7234 28.2309 12.2964 27.505C11.8268 32.5432 11.4425 38.0082 11.1436 43.9003C10.8448 49.7496 10.5886 55.663 10.3751 61.6404H4.29094C4.46173 57.7978 4.65386 53.9338 4.86734 50.0485C5.08082 46.1205 5.31564 42.2778 5.57182 38.5206C5.87069 34.7207 6.16956 31.0275 6.46843 27.441C6.81 23.8545 7.17292 20.4602 7.55718 17.258H13.0009C14.1537 19.1366 15.3919 21.3568 16.7155 23.9186C18.039 26.4803 19.3626 29.1702 20.6862 31.9881C22.0098 34.7633 23.2906 37.5599 24.5288 40.3779C25.767 43.1531 26.8984 45.6935 27.9231 47.9991C28.9478 45.6935 30.0793 43.1531 31.3175 40.3779C32.5557 37.5599 33.8365 34.7633 35.1601 31.9881C36.4837 29.1702 37.8073 26.4803 39.1308 23.9186C40.4544 21.3568 41.6926 19.1366 42.8454 17.258H48.2891C49.7408 31.5612 50.8295 46.3553 51.5553 61.6404H45.4712C45.2577 55.663 45.0015 49.7496 44.7026 43.9003C44.4038 38.0082 44.0195 32.5432 43.5499 27.505C43.1229 28.2309 42.5465 29.2769 41.8207 30.6432C41.1375 32.0095 40.3904 33.5679 39.5791 35.3184C38.7679 37.0262 37.8926 38.8622 36.9533 40.8262C36.0567 42.7475 35.2028 44.6261 34.3916 46.462C33.5804 48.298 32.8118 50.0058 32.086 51.5855C31.4029 53.1653 30.8478 54.4675 30.4209 55.4922H25.4254ZM57.0051 67.8527C57.4747 68.0662 58.0725 68.2583 58.7983 68.4291C59.5668 68.6426 60.314 68.7493 61.0398 68.7493C63.3881 68.7493 65.224 68.2156 66.5476 67.1482C67.8712 66.1235 69.0667 64.437 70.1341 62.0887C67.4442 56.9652 64.9252 51.5429 62.5769 45.8216C60.2713 40.0576 58.35 34.2296 56.8129 28.3376H63.2173C63.687 30.2589 64.242 32.3297 64.8825 34.5499C65.5656 36.7701 66.3128 39.0543 67.124 41.4026C67.9352 43.7508 68.8105 46.0991 69.7498 48.4474C70.6891 50.7957 71.6711 53.0586 72.6958 55.2361C74.3183 50.753 75.7273 46.3126 76.9227 41.9149C78.1182 37.5172 79.2497 32.9915 80.3171 28.3376H86.4653C84.9282 34.6139 83.2204 40.6554 81.3418 46.462C79.4631 52.226 77.4351 57.627 75.2576 62.6651C74.4037 64.5865 73.5071 66.2303 72.5678 67.5965C71.6711 69.0055 70.6678 70.1583 69.5577 71.0549C68.4476 71.9515 67.1881 72.6133 65.7791 73.0403C64.4128 73.4672 62.8544 73.6807 61.1039 73.6807C60.6342 73.6807 60.1432 73.638 59.6309 73.5526C59.1185 73.5099 58.6062 73.4245 58.0938 73.2964C57.6242 73.211 57.1759 73.1043 56.7489 72.9762C56.3646 72.8481 56.0871 72.7414 55.9163 72.656L57.0051 67.8527Z" fill="url(#paint0_linear)"/>
<path d="M25.4254 55.4922C24.9985 54.4675 24.4221 53.1653 23.6962 51.5855C23.0131 50.0058 22.2659 48.298 21.4547 46.462C20.6435 44.6261 19.7682 42.7475 18.8289 40.8262C17.9323 38.8622 17.0784 37.0262 16.2672 35.3184C15.4559 33.5679 14.6874 32.0095 13.9616 30.6432C13.2784 29.2769 12.7234 28.2309 12.2964 27.505C11.8268 32.5432 11.4425 38.0082 11.1436 43.9003C10.8448 49.7496 10.5886 55.663 10.3751 61.6404H4.29094C4.46173 57.7978 4.65386 53.9338 4.86734 50.0485C5.08082 46.1205 5.31564 42.2778 5.57182 38.5206C5.87069 34.7207 6.16956 31.0275 6.46843 27.441C6.81 23.8545 7.17292 20.4602 7.55718 17.258H13.0009C14.1537 19.1366 15.3919 21.3568 16.7155 23.9186C18.039 26.4803 19.3626 29.1702 20.6862 31.9881C22.0098 34.7633 23.2906 37.5599 24.5288 40.3779C25.767 43.1531 26.8984 45.6935 27.9231 47.9991C28.9478 45.6935 30.0793 43.1531 31.3175 40.3779C32.5557 37.5599 33.8365 34.7633 35.1601 31.9881C36.4837 29.1702 37.8073 26.4803 39.1308 23.9186C40.4544 21.3568 41.6926 19.1366 42.8454 17.258H48.2891C49.7408 31.5612 50.8295 46.3553 51.5553 61.6404H45.4712C45.2577 55.663 45.0015 49.7496 44.7026 43.9003C44.4038 38.0082 44.0195 32.5432 43.5499 27.505C43.1229 28.2309 42.5465 29.2769 41.8207 30.6432C41.1375 32.0095 40.3904 33.5679 39.5791 35.3184C38.7679 37.0262 37.8926 38.8622 36.9533 40.8262C36.0567 42.7475 35.2028 44.6261 34.3916 46.462C33.5804 48.298 32.8118 50.0058 32.086 51.5855C31.4029 53.1653 30.8478 54.4675 30.4209 55.4922H25.4254ZM57.0051 67.8527C57.4747 68.0662 58.0725 68.2583 58.7983 68.4291C59.5668 68.6426 60.314 68.7493 61.0398 68.7493C63.3881 68.7493 65.224 68.2156 66.5476 67.1482C67.8712 66.1235 69.0667 64.437 70.1341 62.0887C67.4442 56.9652 64.9252 51.5429 62.5769 45.8216C60.2713 40.0576 58.35 34.2296 56.8129 28.3376H63.2173C63.687 30.2589 64.242 32.3297 64.8825 34.5499C65.5656 36.7701 66.3128 39.0543 67.124 41.4026C67.9352 43.7508 68.8105 46.0991 69.7498 48.4474C70.6891 50.7957 71.6711 53.0586 72.6958 55.2361C74.3183 50.753 75.7273 46.3126 76.9227 41.9149C78.1182 37.5172 79.2497 32.9915 80.3171 28.3376H86.4653C84.9282 34.6139 83.2204 40.6554 81.3418 46.462C79.4631 52.226 77.4351 57.627 75.2576 62.6651C74.4037 64.5865 73.5071 66.2303 72.5678 67.5965C71.6711 69.0055 70.6678 70.1583 69.5577 71.0549C68.4476 71.9515 67.1881 72.6133 65.7791 73.0403C64.4128 73.4672 62.8544 73.6807 61.1039 73.6807C60.6342 73.6807 60.1432 73.638 59.6309 73.5526C59.1185 73.5099 58.6062 73.4245 58.0938 73.2964C57.6242 73.211 57.1759 73.1043 56.7489 72.9762C56.3646 72.8481 56.0871 72.7414 55.9163 72.656L57.0051 67.8527Z" fill="white"/>
<path d="M96.1299 60V14.5288H125.59V16.5782H98.3714V35.7914H121.491V37.7768H98.3714V60H96.1299ZM133.445 18.6276V13.2479H135.623V18.6276H133.445ZM133.445 60V26.6972H135.623V60H133.445ZM172.593 60H170.416V41.4273C170.416 36.8588 169.754 33.5285 168.43 31.4364C167.15 29.3016 165.1 28.2342 162.282 28.2342C160.276 28.2342 158.312 28.7252 156.39 29.7072C154.469 30.6465 152.782 31.9488 151.331 33.6139C149.879 35.2364 148.854 37.0936 148.257 39.1857V60H146.079V26.6972H148.193V35.0229C149.089 33.2723 150.285 31.7353 151.779 30.4117C153.316 29.0881 155.024 28.0634 156.903 27.3376C158.781 26.5691 160.703 26.1848 162.667 26.1848C166.168 26.1848 168.687 27.4443 170.224 29.9634C171.803 32.4825 172.593 36.2184 172.593 41.1711V60ZM179.786 50.4575C179.786 48.5361 180.363 46.8497 181.515 45.398C182.711 43.9463 184.333 42.8149 186.383 42.0037C188.475 41.1497 190.887 40.7228 193.62 40.7228C195.413 40.7228 197.27 40.8936 199.192 41.2351C201.113 41.534 202.842 41.961 204.379 42.516V38.9936C204.379 35.7487 203.418 33.1443 201.497 31.1802C199.619 29.1735 197.078 28.1702 193.876 28.1702C192.253 28.1702 190.524 28.5331 188.688 29.2589C186.852 29.9421 185.017 30.9241 183.181 32.2049L182.092 30.6038C186.404 27.6578 190.375 26.1848 194.004 26.1848C197.847 26.1848 200.899 27.359 203.162 29.7072C205.425 32.0128 206.557 35.151 206.557 39.1217V56.6697C206.557 57.609 206.941 58.0787 207.709 58.0787V60C207.069 60.0427 206.663 60.0213 206.493 59.936C205.895 59.8079 205.425 59.4876 205.084 58.9753C204.742 58.4629 204.55 57.9079 204.507 57.3102V54.4282C202.97 56.3922 200.963 57.9292 198.487 59.0393C196.053 60.1067 193.47 60.6404 190.738 60.6404C188.646 60.6404 186.767 60.1921 185.102 59.2955C183.479 58.3562 182.177 57.118 181.195 55.581C180.256 54.0439 179.786 52.3361 179.786 50.4575ZM203.226 53.3394C203.995 52.3574 204.379 51.4181 204.379 50.5215V44.4373C201.092 43.1565 197.548 42.516 193.748 42.516C190.204 42.516 187.343 43.2418 185.166 44.6935C182.988 46.1025 181.9 47.9811 181.9 50.3294C181.9 51.8664 182.284 53.2754 183.052 54.5563C183.864 55.8371 184.952 56.8618 186.319 57.6304C187.685 58.3989 189.243 58.7832 190.994 58.7832C193.641 58.7832 196.053 58.2922 198.231 57.3102C200.451 56.2855 202.116 54.9619 203.226 53.3394ZM243.079 60H240.902V41.4273C240.902 36.8588 240.24 33.5285 238.916 31.4364C237.635 29.3016 235.586 28.2342 232.768 28.2342C230.761 28.2342 228.797 28.7252 226.876 29.7072C224.955 30.6465 223.268 31.9488 221.817 33.6139C220.365 35.2364 219.34 37.0936 218.742 39.1857V60H216.565V26.6972H218.678V35.0229C219.575 33.2723 220.771 31.7353 222.265 30.4117C223.802 29.0881 225.51 28.0634 227.388 27.3376C229.267 26.5691 231.188 26.1848 233.152 26.1848C236.653 26.1848 239.172 27.4443 240.71 29.9634C242.289 32.4825 243.079 36.2184 243.079 41.1711V60ZM266.988 60.6404C264.725 60.6404 262.611 60.1921 260.647 59.2955C258.683 58.3562 256.954 57.0967 255.46 55.5169C253.965 53.8945 252.791 52.0372 251.937 49.9451C251.126 47.853 250.72 45.6115 250.72 43.2205C250.72 40.061 251.425 37.2004 252.834 34.6386C254.243 32.0342 256.164 29.9848 258.598 28.4904C261.074 26.9533 263.849 26.1848 266.923 26.1848C269.827 26.1848 272.389 26.868 274.609 28.2342C276.872 29.5578 278.579 31.3937 279.732 33.742L277.619 34.5105C276.551 32.5465 275.036 31.0095 273.072 29.8994C271.15 28.7893 269.037 28.2342 266.731 28.2342C264.17 28.2342 261.843 28.896 259.751 30.2196C257.658 31.5432 255.993 33.3364 254.755 35.5993C253.517 37.8622 252.898 40.4026 252.898 43.2205C252.898 46.0384 253.538 48.6215 254.819 50.9698C256.1 53.2754 257.787 55.1327 259.879 56.5416C261.971 57.9079 264.276 58.591 266.795 58.591C268.461 58.591 270.083 58.2922 271.663 57.6944C273.242 57.054 274.609 56.2428 275.762 55.2608C276.914 54.236 277.662 53.1473 278.003 51.9945L280.181 52.635C279.626 54.172 278.686 55.5383 277.363 56.7338C276.039 57.9292 274.481 58.8899 272.687 59.6157C270.894 60.2989 268.994 60.6404 266.988 60.6404ZM301.26 60.6404C298.997 60.6404 296.883 60.1921 294.919 59.2955C292.955 58.3562 291.226 57.0967 289.732 55.5169C288.28 53.8945 287.127 52.0372 286.273 49.9451C285.462 47.8103 285.056 45.5474 285.056 43.1565C285.056 40.0396 285.761 37.2004 287.17 34.6386C288.579 32.0769 290.479 30.0274 292.87 28.4904C295.303 26.9533 298.015 26.1848 301.003 26.1848C304.077 26.1848 306.81 26.9747 309.201 28.5544C311.635 30.0915 313.556 32.1622 314.965 34.7667C316.417 37.3285 317.164 40.1891 317.206 43.3486C317.206 43.5194 317.185 43.6902 317.142 43.8609C317.142 44.0317 317.142 44.2025 317.142 44.3733H287.298C287.511 47.0631 288.259 49.4968 289.54 51.6743C290.863 53.8518 292.55 55.581 294.599 56.8618C296.648 58.1427 298.911 58.7832 301.388 58.7832C303.821 58.7832 306.106 58.1641 308.24 56.9259C310.375 55.645 311.891 54.0226 312.787 52.0586L314.773 52.5709C314.132 54.108 313.129 55.4956 311.763 56.7338C310.396 57.9292 308.795 58.8899 306.959 59.6157C305.166 60.2989 303.266 60.6404 301.26 60.6404ZM287.234 42.516H315.029C314.858 39.6981 314.132 37.2217 312.851 35.0869C311.571 32.9094 309.905 31.2016 307.856 29.9634C305.849 28.7252 303.586 28.1061 301.067 28.1061C298.591 28.1061 296.328 28.7252 294.279 29.9634C292.272 31.2016 290.628 32.9094 289.347 35.0869C288.109 37.2644 287.405 39.7408 287.234 42.516ZM334.569 60.6404C332.007 60.6404 329.616 60.1921 327.396 59.2955C325.218 58.3989 323.297 57.054 321.632 55.2608L322.785 53.7237C324.535 55.4315 326.35 56.6911 328.229 57.5023C330.107 58.3135 332.199 58.7191 334.505 58.7191C337.579 58.7191 340.077 58.0573 341.998 56.7338C343.962 55.4102 344.944 53.5743 344.944 51.226C344.944 49.6889 344.496 48.4934 343.599 47.6395C342.745 46.7856 341.486 46.1025 339.82 45.5901C338.198 45.0351 336.213 44.48 333.864 43.925C331.559 43.3272 329.637 42.7508 328.1 42.1958C326.606 41.598 325.475 40.8082 324.706 39.8262C323.938 38.8442 323.553 37.4779 323.553 35.7274C323.553 33.5499 324.087 31.7566 325.154 30.3477C326.265 28.9387 327.716 27.8927 329.509 27.2095C331.345 26.5264 333.352 26.1848 335.53 26.1848C338.177 26.1848 340.461 26.6331 342.382 27.5297C344.304 28.3837 345.691 29.5151 346.545 30.9241L345.136 32.1409C344.239 30.8173 342.873 29.814 341.037 29.1308C339.244 28.4477 337.323 28.1061 335.273 28.1061C333.566 28.1061 331.986 28.3623 330.534 28.8747C329.082 29.3443 327.908 30.1342 327.012 31.2443C326.115 32.3117 325.667 33.6993 325.667 35.4071C325.667 36.8161 325.966 37.9049 326.563 38.6734C327.204 39.4419 328.164 40.061 329.445 40.5307C330.726 40.9576 332.37 41.4273 334.377 41.9396C336.981 42.5801 339.223 43.2205 341.101 43.8609C343.023 44.5014 344.496 45.3766 345.52 46.4867C346.545 47.5541 347.057 49.0485 347.057 50.9698C347.057 53.9585 345.905 56.3281 343.599 58.0787C341.336 59.7865 338.326 60.6404 334.569 60.6404Z" fill="white"/>
<defs>
<linearGradient id="paint0_linear" x1="44" y1="0.640442" x2="44" y2="74.6404" gradientUnits="userSpaceOnUse">
<stop stop-color="#188A89"/>
<stop offset="1" stop-color="#1CA09E"/>
</linearGradient>
</defs>
</svg>
